<svg width='200' height='200' fill="#000000" xmlns="http://www.w3.org/2000/svg" xmlns:xlink="http://www.w3.org/1999/xlink" version="1.1" x="0px" y="0px" viewBox="0 0 100 100" style="enable-background:new 0 0 100 100;" xml:space="preserve"><path d="M53.7,43.7l-11,21.7c-0.1,0.2-0.1,0.3-0.2,0.5c-0.4,1.4,0.4,2.7,1.7,3.2c1.4,0.4,2.7-0.4,3.2-1.7L54,43.7  C54,43.6,53.8,43.5,53.7,43.7z M45.2,68c-0.8,0.1-1.5-0.4-1.6-1.1c-0.1-0.8,0.4-1.5,1.1-1.6c0.8-0.1,1.5,0.4,1.6,1.1  C46.4,67.2,45.9,67.9,45.2,68z"></path><path d="M40.9,38.1c0.1,0.4,0.6,0.7,1,0.7c0.9-0.1,1.9-0.1,2.8-0.1c1.5,0,2.9,0.1,4.3,0.3c0.6,0.1,1.2-0.4,1.2-1  v-6.9c0-0.6-0.5-1-1-1c-3.2,0.1-6.4,0.7-9.3,1.6c-0.5,0.2-0.8,0.7-0.6,1.3L40.9,38.1z"></path><path d="M51.7,41.9c2.1,0.5,3.5,1,5.5,2c0.5,0.3,1.2,0,1.4-0.6l4.2-12.8c0.2-0.5-0.1-1.1-0.6-1.3  c-3-0.9-6.9-1.5-10.1-1.7c-0.6,0-1,0.4-1,1v12.4C51,41.4,51.3,41.8,51.7,41.9z"></path><path d="M80.7,47.7l-8.4,6.1c-0.4,0.3-0.5,0.8-0.3,1.3c0.9,1.6,1.6,3.2,2.2,4.9c0.2,0.5,0.7,0.8,1.2,0.6l9.8-3.2  c0.5-0.2,0.8-0.7,0.6-1.3c-1-2.9-2.3-5.7-3.8-8.2C81.8,47.5,81.1,47.4,80.7,47.7z"></path><path d="M32.1,41.6c2.3-1.1,4.7-2,7.2-2.5c0.6-0.1,1-0.7,0.8-1.3l-1.5-4.7c-0.2-0.5-0.8-0.8-1.3-0.6  c-2.9,1.2-5.7,2.7-8.2,4.6c-0.4,0.3-0.5,0.9-0.2,1.4l2,2.8C31.1,41.7,31.7,41.8,32.1,41.6z"></path><path d="M62.6,33.2l-2.8,8.6c-0.1,0.4,0,0.9,0.4,1.1c1.7,1,3.4,2.2,4.9,3.6c0.4,0.4,1.1,0.3,1.5-0.1l5.7-7.9  c0.3-0.4,0.2-1.1-0.2-1.4c-2.5-1.9-5.3-3.4-8.2-4.6C63.4,32.4,62.8,32.7,62.6,33.2z"></path><path d="M67.1,48.4c1.3,1.4,2.5,2.8,3.5,4.4c0.3,0.5,0.9,0.6,1.4,0.3l8.3-6c0.4-0.3,0.5-0.9,0.2-1.4  c-1.8-2.5-3.9-4.8-6.2-6.8c-0.4-0.4-1.1-0.3-1.5,0.2L67,47.2C66.7,47.5,66.7,48.1,67.1,48.4z"></path><path d="M23.6,47.9c1.8-2,3.9-3.7,6.2-5.1c0.5-0.3,0.6-1,0.3-1.4L28.3,39c-0.3-0.5-1-0.6-1.5-0.2  c-2.3,2-4.4,4.3-6.2,6.8c-0.3,0.4-0.2,1.1,0.2,1.4l1.4,1C22.7,48.4,23.2,48.3,23.6,47.9z"></path><path d="M15.9,57.4l0.5,0.2c0.5,0.2,1-0.1,1.2-0.6c1.1-2.6,2.5-5,4.2-7.1c0.4-0.4,0.3-1.1-0.2-1.4l-1.2-0.8  c-0.5-0.3-1.1-0.2-1.4,0.3c-1.6,2.5-2.9,5.3-3.8,8.2C15.1,56.7,15.4,57.3,15.9,57.4z"></path><path d="M75,62.5c0.4,1.7,0.7,3.5,0.9,5.3c0,0.5,0.5,0.9,1,0.9h10.2c0.6,0,1-0.5,1-1c-0.1-3.1-0.5-6-1.3-8.9  c-0.1-0.6-0.7-0.9-1.3-0.7l-9.8,3.2C75.1,61.5,74.9,62,75,62.5z"></path><path d="M15,68.7c0.1-3.2,0.7-6.3,1.7-9.2c0.2-0.5-0.1-1.1-0.6-1.3l-0.3-0.1c-0.5-0.2-1.1,0.1-1.3,0.7  c-0.8,3.2-1.3,6.5-1.3,9.9H15z"></path></svg>