<svg width='200' height='200' fill="#000000" xmlns="http://www.w3.org/2000/svg" xmlns:xlink="http://www.w3.org/1999/xlink" version="1.1" x="0px" y="0px" viewBox="0 0 100 100" style="enable-background:new 0 0 100 100;" xml:space="preserve"><path d="M69,59l-24.4,5.1c-0.2,0-0.4,0.1-0.5,0.1c-1.3,0.6-1.9,2-1.4,3.3c0.6,1.3,2,1.9,3.3,1.4l23-9.7  C69.2,59.2,69.1,59,69,59z M44,67.7c-0.6-0.5-0.6-1.4-0.1-2s1.4-0.6,2-0.1s0.6,1.4,0.1,2C45.5,68.1,44.6,68.2,44,67.7z"></path><path d="M40.9,38.1c0.1,0.4,0.6,0.7,1,0.7c0.9-0.1,1.9-0.1,2.8-0.1c1.5,0,2.9,0.1,4.3,0.3c0.6,0.1,1.2-0.4,1.2-1  v-6.9c0-0.6-0.5-1-1-1c-3.2,0.1-6.4,0.7-9.3,1.6c-0.5,0.2-0.8,0.7-0.6,1.3L40.9,38.1z"></path><path d="M51.7,39.5c2.1,0.5,4.2,1.3,6.2,2.2c0.5,0.3,1.2,0,1.4-0.6l2.7-8.2c0.2-0.5-0.1-1.1-0.6-1.3  c-3-0.9-6.1-1.5-9.3-1.6c-0.6,0-1,0.4-1,1v7.5C50.9,39,51.2,39.4,51.7,39.5z"></path><path d="M82.6,46.3l-12.2,8.9c-0.4,0.3-0.5,0.8-0.3,1.3c0.9,1.6,1.2,2.6,1.8,4.3c0.2,0.5,0.7,0.8,1.2,0.6l14.4-4.7  c0.5-0.2,0.8-0.7,0.6-1.3c-1-2.9-2.6-6.4-4.1-8.9C83.7,46,83,45.9,82.6,46.3z"></path><path d="M32,41.6c2.3-1.1,4.7-2,7.2-2.5c0.6-0.1,1-0.7,0.8-1.3l-1.5-4.7c-0.2-0.5-0.8-0.8-1.3-0.6  c-2.9,1.2-5.7,2.7-8.2,4.6c-0.4,0.3-0.5,0.9-0.2,1.4l2,2.8C31.1,41.7,31.6,41.8,32,41.6z"></path><path d="M62.6,33.2l-2.8,8.6c-0.1,0.4,0,0.9,0.4,1.1c1.7,1,3.4,2.2,4.9,3.6c0.4,0.4,1.1,0.3,1.5-0.1l5.7-7.9  c0.3-0.4,0.2-1.1-0.2-1.4c-2.5-1.9-5.3-3.4-8.2-4.6C63.4,32.4,62.8,32.7,62.6,33.2z"></path><path d="M67,48.4c1.3,1.4,2.5,2.8,3.5,4.4c0.3,0.5,0.9,0.6,1.4,0.3l8.3-6c0.4-0.3,0.5-0.9,0.2-1.4  c-1.8-2.5-3.9-4.8-6.2-6.8c-0.4-0.4-1.1-0.3-1.5,0.2l-5.9,8.1C66.6,47.5,66.7,48.1,67,48.4z"></path><path d="M23.5,47.9c1.8-2,3.9-3.7,6.2-5.1c0.5-0.3,0.6-1,0.3-1.4L28.3,39c-0.3-0.5-1-0.6-1.5-0.2  c-2.3,2-4.4,4.3-6.2,6.8c-0.3,0.4-0.2,1.1,0.2,1.4l1.4,1C22.6,48.4,23.2,48.3,23.5,47.9z"></path><path d="M15.8,57.4l0.5,0.2c0.5,0.2,1-0.1,1.2-0.6c1.1-2.6,2.5-5,4.2-7.1c0.4-0.4,0.3-1.1-0.2-1.4l-1.2-0.8  c-0.3-0.4-1-0.2-1.3,0.3c-1.6,2.5-2.9,5.3-3.8,8.2C15,56.7,15.3,57.3,15.8,57.4z"></path><path d="M74.9,62.5c0.4,1.7,0.7,3.5,0.9,5.3c0,0.5,0.5,0.9,1,0.9H87c0.6,0,1-0.5,1-1c-0.1-3.1-0.5-6-1.3-8.9  c-0.1-0.6-0.7-0.9-1.3-0.7l-9.8,3.2C75.1,61.5,74.8,62,74.9,62.5z"></path><path d="M14.9,68.7c0.1-3.2,0.7-6.3,1.7-9.2c0.2-0.5-0.1-1.1-0.6-1.3l-0.3-0.1c-0.5-0.2-1.1,0.1-1.3,0.7  c-0.8,3.2-1.3,6.5-1.3,9.9H14.9z"></path></svg>