<svg width='200' height='200' fill="#000000" xmlns="http://www.w3.org/2000/svg" xmlns:xlink="http://www.w3.org/1999/xlink" version="1.1" x="0px" y="0px" viewBox="0 0 100 100" style="enable-background:new 0 0 100 100;" xml:space="preserve"><path d="M60.7,47L43.2,64.7c-0.1,0.1-0.2,0.3-0.4,0.4c-0.8,1.2-0.4,2.7,0.7,3.5c1.2,0.8,2.7,0.4,3.5-0.7L60.7,47  C61,47,60.8,46.9,60.7,47z M44.8,68c-0.8-0.1-1.3-0.8-1.2-1.6c0.1-0.8,0.8-1.3,1.6-1.2c0.8,0.1,1.3,0.8,1.2,1.6  C46.2,67.6,45.5,68.1,44.8,68z"></path><path d="M40.9,38.1c0.1,0.4,0.6,0.7,1,0.7c0.9-0.1,1.9-0.1,2.8-0.1c1.5,0,2.9,0.1,4.3,0.3c0.6,0.1,1.2-0.4,1.2-1  v-6.9c0-0.6-0.5-1-1-1c-3.2,0.1-6.4,0.7-9.3,1.6c-0.5,0.2-0.8,0.7-0.6,1.3L40.9,38.1z"></path><path d="M51.7,39.5c2.1,0.5,4.2,1.3,6.2,2.2c0.5,0.3,1.2,0,1.4-0.6l2.7-8.2c0.2-0.5-0.1-1.1-0.6-1.3  c-3-0.9-6.1-1.5-9.3-1.6c-0.6,0-1,0.4-1,1v7.5C51,39,51.3,39.3,51.7,39.5z"></path><path d="M80.7,47.7l-8.4,6.1c-0.4,0.3-0.5,0.8-0.3,1.3c0.9,1.6,1.6,3.2,2.2,4.9c0.2,0.5,0.7,0.8,1.2,0.6l9.8-3.2  c0.5-0.2,0.8-0.7,0.6-1.3c-1-2.9-2.3-5.7-3.8-8.2C81.8,47.5,81.1,47.4,80.7,47.7z"></path><path d="M32.1,41.6c2.3-1.1,4.7-2,7.2-2.5c0.6-0.1,1-0.7,0.8-1.3l-1.5-4.7c-0.2-0.5-0.8-0.8-1.3-0.6  c-2.9,1.2-5.7,2.7-8.2,4.6c-0.4,0.3-0.5,0.9-0.2,1.4l2,2.8C31.1,41.7,31.7,41.8,32.1,41.6z"></path><path d="M63.4,30.8l-4.3,13.1c-0.1,0.4,0,0.9,0.4,1.1c1.7,1,2.8,1.9,4.3,3.2c0.4,0.4,1.1,0.3,1.5-0.1l8.5-11.7  c0.3-0.4,0.2-1.1-0.2-1.4c-2.5-1.9-6-3.7-8.9-4.9C64.2,30,63.6,30.3,63.4,30.8z"></path><path d="M67.1,48.4c1.3,1.4,2.5,2.8,3.5,4.4c0.3,0.5,0.9,0.6,1.4,0.3l8.3-6c0.4-0.3,0.5-0.9,0.2-1.4  c-1.8-2.5-3.9-4.8-6.2-6.8c-0.4-0.4-1.1-0.3-1.5,0.2l-5.8,8C66.7,47.5,66.7,48.1,67.1,48.4z"></path><path d="M23.6,47.9c1.8-2,3.9-3.7,6.2-5.1c0.5-0.3,0.6-1,0.3-1.4L28.3,39c-0.3-0.5-1-0.6-1.5-0.2  c-2.3,2-4.4,4.3-6.2,6.8c-0.3,0.4-0.2,1.1,0.2,1.4l1.4,1C22.7,48.4,23.2,48.3,23.6,47.9z"></path><path d="M15.9,57.4l0.5,0.2c0.5,0.2,1-0.1,1.2-0.6c1.1-2.6,2.5-5,4.2-7.1c0.4-0.4,0.3-1.1-0.2-1.4l-1.2-0.8  c-0.5-0.3-1.1-0.2-1.4,0.3c-1.6,2.5-2.9,5.3-3.8,8.2C15.1,56.7,15.4,57.3,15.9,57.4z"></path><path d="M75,62.5c0.4,1.7,0.7,3.5,0.9,5.3c0,0.5,0.5,0.9,1,0.9h10.2c0.6,0,1-0.5,1-1c-0.1-3.1-0.5-6-1.3-8.9  c-0.1-0.6-0.7-0.9-1.3-0.7l-9.8,3.2C75.1,61.5,74.8,62,75,62.5z"></path><path d="M15,68.7c0.1-3.2,0.7-6.3,1.7-9.2c0.2-0.5-0.1-1.1-0.6-1.3l-0.3-0.1c-0.5-0.2-1.1,0.1-1.3,0.7  c-0.8,3.2-1.3,6.5-1.3,9.9H15z"></path></svg>