<svg width='200' height='200' fill="#000000" xmlns="http://www.w3.org/2000/svg" xmlns:xlink="http://www.w3.org/1999/xlink" version="1.1" x="0px" y="0px" viewBox="0 0 100 100" style="enable-background:new 0 0 100 100;" xml:space="preserve"><path d="M19.6,64.8l24.5,4.8c0.2,0,0.4,0,0.5,0.1c1.4,0,2.5-1.1,2.6-2.5c0-1.4-1.1-2.5-2.5-2.6H19.6  C19.5,64.6,19.4,64.8,19.6,64.8z M45.9,66.5c0.3,0.7,0.1,1.5-0.6,1.9c-0.7,0.3-1.5,0.1-1.9-0.6c-0.3-0.7-0.1-1.5,0.6-1.9  C44.8,65.5,45.6,65.8,45.9,66.5z"></path><path d="M40.7,38.4c0.1,0.4,0.6,0.7,1,0.7c0.9-0.1,1.9-0.1,2.8-0.1c1.5,0,2.9,0.1,4.3,0.3c0.6,0.1,1.2-0.4,1.2-1  v-6.9c0-0.6-0.5-1-1-1c-3.2,0.1-6.4,0.7-9.3,1.6c-0.5,0.2-0.8,0.7-0.6,1.3L40.7,38.4z"></path><path d="M51.5,39.8c2.1,0.5,4.2,1.3,6.2,2.2c0.5,0.3,1.2,0,1.4-0.6l2.7-8.2c0.2-0.5-0.1-1.1-0.6-1.3  c-3-0.9-6.1-1.5-9.3-1.6c-0.6,0-1,0.4-1,1v7.5C50.7,39.3,51,39.7,51.5,39.8z"></path><path d="M80.4,48L72,54.1c-0.4,0.3-0.5,0.8-0.3,1.3c0.9,1.6,1.6,3.2,2.2,4.9c0.2,0.5,0.7,0.8,1.2,0.6l9.8-3.2  c0.5-0.2,0.8-0.7,0.6-1.3c-1-2.9-2.3-5.7-3.8-8.2C81.6,47.8,80.9,47.7,80.4,48z"></path><path d="M31.9,41.9c2.3-1.1,4.7-2,7.2-2.5c0.6-0.1,1-0.7,0.8-1.3l-1.5-4.7c-0.2-0.5-0.8-0.8-1.3-0.6  c-2.9,1.2-5.7,2.7-8.2,4.6c-0.4,0.3-0.5,0.9-0.2,1.4l2,2.8C30.9,42,31.4,42.1,31.9,41.9z"></path><path d="M62.4,33.5l-2.8,8.6c-0.1,0.4,0,0.9,0.4,1.1c1.7,1,3.4,2.2,4.9,3.6c0.4,0.4,1.1,0.3,1.5-0.1l5.7-7.9  c0.3-0.4,0.2-1.1-0.2-1.4c-2.5-1.9-5.3-3.4-8.2-4.6C63.2,32.7,62.6,33,62.4,33.5z"></path><path d="M66.9,48.7c1.3,1.4,2.5,2.8,3.5,4.4c0.3,0.5,0.9,0.6,1.4,0.3l8.3-6c0.4-0.3,0.5-0.9,0.2-1.4  c-1.8-2.5-3.9-4.8-6.2-6.8c-0.4-0.4-1.1-0.3-1.5,0.2l-5.9,8.1C66.5,47.9,66.5,48.4,66.9,48.7z"></path><path d="M23.4,48.3c1.8-2,3.9-3.7,6.2-5.1c0.5-0.3,0.6-1,0.3-1.4l-1.8-2.4c-0.3-0.5-1-0.6-1.5-0.2  c-2.3,2-4.4,4.3-6.2,6.8c-0.3,0.4-0.2,1.1,0.2,1.4l1.4,1C22.5,48.7,23,48.6,23.4,48.3z"></path><path d="M15.7,57.7l0.5,0.2c0.5,0.2,1-0.1,1.2-0.6c1.1-2.6,2.5-5,4.2-7.1c0.4-0.4,0.3-1.1-0.2-1.4L20.3,48  c-0.5-0.3-1.1-0.2-1.4,0.3c-1.6,2.5-2.9,5.3-3.8,8.2C14.9,57,15.2,57.6,15.7,57.7z"></path><path d="M74.8,62.8c0.4,1.7,0.7,3.5,0.9,5.3c0,0.5,0.5,0.9,1,0.9h10.2c0.6,0,1-0.5,1-1c-0.1-3.1-0.5-6-1.3-8.9  c-0.1-0.6-0.7-0.9-1.3-0.7l-9.8,3.2C74.9,61.8,74.6,62.3,74.8,62.8z"></path><path d="M16,69c0.5,0,1-0.4,1-0.9c0.1-2.7,0.9-5,1.8-7.6c0.2-0.5-0.1-1.1-0.6-1.3l-4.9-1.6c-0.5-0.2-1.1,0.1-1.3,0.7  c-0.7,2.9-1.1,6.4-1.1,9.7c0,0.7,0.4,1,1,1H16z"></path></svg>