<svg xmlns="http://www.w3.org/2000/svg" viewBox="-7508.097 -6723.956 34.784 36.809">
  <defs>
    <style>
      .cls-1 {
        fill: #fff;
      }

      .cls-1, .cls-3 {
        stroke: #807e82;
        stroke-miterlimit: 10;
        stroke-width: 1.91px;
      }

      .cls-2 {
        fill: #8e72b1;
      }

      .cls-3 {
        fill: none;
        stroke-linecap: round;
        stroke-linejoin: round;
      }
    </style>
  </defs>
  <g id="Group_1348" data-name="Group 1348" transform="translate(-7508.1 -6723.974)">
    <path id="Path_1770" data-name="Path 1770" class="cls-1" d="M29.446,35.974c-.51-11.828,4.486-10.5,4.384-20.087C33.728,6,26.795,1.408,19.25,1S7.728,4.977,5.586,8.24,1.1,25.37,1.1,25.37l3.161.612s1.02,6.322,1.326,6.424c.306.2,6.832-.2,6.832-.2l.306,3.671H29.446Z" transform="translate(0 0)"/>
    <path id="Path_1771" data-name="Path 1771" class="cls-2" d="M26.622,8.11a3.816,3.816,0,0,0-1.835-.51c-1.224,0-2.243,1.122-2.957,2.039C21.116,8.722,20.1,7.6,18.873,7.6a3.521,3.521,0,0,0-1.835.51A4.252,4.252,0,0,0,15.1,11.882a5.166,5.166,0,0,0,.2,1.326c.612,3.263,6.526,7.443,6.526,7.443s5.914-4.181,6.526-7.443a5.166,5.166,0,0,0,.2-1.326A4.486,4.486,0,0,0,26.622,8.11Z" transform="translate(0.275 0.13)"/>
    <path id="Path_1772" data-name="Path 1772" class="cls-3" d="M6.3,18.1a5.173,5.173,0,0,0,5.2,0" transform="translate(0.102 0.336)"/>
  </g>
</svg>
