<?xml version="1.0" encoding="utf-8"?>
<svg xmlns="http://www.w3.org/2000/svg" xmlns:xlink="http://www.w3.org/1999/xlink" version="1.1" style="width:0;height:0;color:#fff;position:absolute;overflow:hidden;">
  <defs>
<symbol viewBox="0 0 11 12" aria-labelledby="bwsi-zero-calendar-title" id="si-zero-calendar"><title id="bwsi-zero-calendar-title">icon calendar</title><path d="M10 4v7H1V4h9m0-1H1a1 1 0 0 0-1 1v7a1 1 0 0 0 1 1h9a1 1 0 0 0 1-1V4a1 1 0 0 0-1-1zm.5-2H9V.5a.5.5 0 0 0-1 0V1H3V.5a.5.5 0 0 0-1 0V1H.5a.5.5 0 0 0 0 1h10a.5.5 0 0 0 0-1zM3 5H2v1h1V5zm2 0H4v1h1V5zm2 0H6v1h1V5zm2 0H8v1h1V5zM3 7H2v1h1V7zm2 0H4v1h1V7zm2 0H6v1h1V7zm2 0H8v1h1V7zM3 9H2v1h1V9zm2 0H4v1h1V9zm2 0H6v1h1V9zm2 0H8v1h1V9z"/></symbol>
<symbol viewBox="0 0 11 11" aria-labelledby="llsi-zero-sequence-h-title" id="si-zero-sequence-h"><title id="llsi-zero-sequence-h-title">icon sequence-h</title><path d="M11 0v11H8V0h3zM4 6v5h3V6H4zM0 8v3h3V8H0z"/></symbol>
<symbol viewBox="0 0 14.300000190734863 14.699999809265137" aria-labelledby="lrsi-zero-setting-title" id="si-zero-setting"><title id="lrsi-zero-setting-title">icon setting</title><path d="M13.9 5.9c.3-.2.4-.5.3-1 0 0-.3-.8-.6-1.3s-.8-1.2-.9-1.2c-.3-.3-.6-.4-.9-.3h-.1c-.9.5-2.1.2-2.6-.7-.1-.2-.2-.7-.2-.7 0-.4-.3-.7-.7-.7H6.1c-.1 0-.2.1-.3.1-.4.2-.5.4-.6.6-.1.3-.4 1.2-.9 1.5-.5.3-1.4.1-1.7 0-.3 0-.6 0-.8.1l-.3.3L.4 4.5c-.2.3-.1.8.2 1 0 0 .3.3.5.6.5.9.2 2.1-.7 2.6H.3c-.2.2-.3.6-.1 1 0 0 .3.8.6 1.3s.8 1.2.9 1.2c.3.3.6.4.9.3h.1c.9-.5 2.1-.2 2.6.7.2.3.2.7.2.7 0 .4.4.7.8.8h2.1c.1 0 .2-.1.3-.1.2-.1.4-.4.5-.6.1-.3.4-1.3.9-1.5.5-.3 1.5-.1 1.8 0 .2.1.5 0 .8-.1.1-.1.2-.1.3-.2l1.1-1.8c.2-.4.1-.8-.3-1.1 0 0-.3-.3-.5-.6-.6-1.1-.3-2.3.6-2.8zm-5.2 4c-1.4.8-3.3.3-4.1-1.1-.8-1.4-.3-3.3 1.1-4.1S9 4.4 9.8 5.8c.8 1.4.3 3.3-1.1 4.1z"/></symbol>
  </defs>
</svg>
