<svg fill="#000000" xmlns="http://www.w3.org/2000/svg" xmlns:xlink="http://www.w3.org/1999/xlink" version="1.1" x="0px" y="0px" viewBox="0 0 100 100" enable-background="new 0 0 100 100" xml:space="preserve"><g><path d="M64.613,38.312c-0.135,0-1.353,0.019-2.604,0.649c-0.139,0.069-0.263,0.152-0.391,0.231v-3.918   c0-3.921-3.197-5.345-5.346-5.345c-0.135,0-1.354,0.018-2.604,0.648c-0.143,0.072-0.271,0.157-0.403,0.239   c-0.15-3.707-3.235-5.068-5.332-5.068c-0.135,0-1.353,0.018-2.604,0.648c-1.679,0.846-2.625,2.418-2.705,4.438   c-0.985-0.634-2.125-0.906-3.064-0.906c-0.135,0-1.353,0.018-2.604,0.648c-1.754,0.884-2.72,2.556-2.72,4.708l-0.001,12.921   c-2.165,1.284-4.166,3.642-4.166,7.981l-0.001,4.185c0.009,3.114,1.805,8.851,8.363,9.456V95h2.308V69.883v-2.307h-1.154   c-0.002,0-0.004,0-0.006,0l0,0c-0.108,0-0.21-0.007-0.315-0.01c-0.108-0.004-0.22-0.004-0.324-0.011   c-0.095-0.006-0.184-0.018-0.276-0.026c-0.109-0.01-0.221-0.018-0.327-0.031c-0.08-0.011-0.154-0.026-0.232-0.039   c-0.111-0.018-0.225-0.033-0.333-0.055c-0.062-0.014-0.12-0.029-0.181-0.044c-0.117-0.026-0.235-0.052-0.347-0.083   c-0.053-0.016-0.102-0.033-0.153-0.049c-0.115-0.035-0.23-0.069-0.339-0.109c-0.046-0.016-0.088-0.035-0.134-0.053   c-0.109-0.043-0.22-0.086-0.324-0.133c-0.03-0.013-0.057-0.028-0.086-0.042c-0.115-0.054-0.23-0.109-0.338-0.169   c-0.023-0.013-0.045-0.027-0.068-0.04c-0.111-0.062-0.22-0.126-0.324-0.194c-0.022-0.014-0.042-0.029-0.064-0.044   c-0.102-0.068-0.203-0.138-0.299-0.21c-0.001-0.002-0.003-0.003-0.004-0.004c-2.542-1.939-2.721-5.342-2.733-5.814   c-0.001-0.021-0.001-0.037-0.001-0.047l0.001-4.182c0-0.246,0.011-0.482,0.027-0.717c0.004-0.058,0.008-0.115,0.014-0.173   c0.019-0.226,0.044-0.448,0.079-0.663c0.001-0.004,0.001-0.009,0.002-0.014c0.037-0.221,0.083-0.435,0.136-0.645   c0.012-0.045,0.023-0.09,0.036-0.136c0.056-0.204,0.117-0.404,0.188-0.597c0-0.001,0-0.002,0.001-0.003   c0.074-0.198,0.159-0.39,0.25-0.575c0.016-0.033,0.033-0.066,0.05-0.098c0.188-0.368,0.411-0.71,0.668-1.025   c0.018-0.021,0.037-0.045,0.056-0.066c0.521-0.619,1.173-1.135,1.962-1.541c1.818-0.934,3.703-0.956,3.718-0.956h8.334   c0.508,0.006,3.045,0.183,3.045,3.027c0,0.917-0.239,1.601-0.729,2.09c-0.866,0.865-2.275,0.877-2.309,0.877l0,0h-9.539v0.384   v1.923h1.16h8.362c0.244,0.005,2.394-0.01,3.935-1.529c0.426-0.42,0.752-0.908,0.987-1.457c1.068,0.849,2.407,1.205,3.482,1.205   c0.135,0,1.354-0.018,2.605-0.648c0.277-0.141,0.528-0.307,0.766-0.484c0.903,2.332,3.264,3.234,4.97,3.234   c0.135,0,1.353-0.018,2.604-0.648c0.143-0.072,0.271-0.157,0.402-0.238v7.826c-0.006,0.508-0.184,3.035-3.018,3.035h-1.154V95   h2.309V69.782c1.584-0.291,2.814-1.198,3.527-2.628c0.625-1.252,0.644-2.47,0.644-2.605V52.418   c0.001-0.059,0.011-0.113,0.011-0.172v-8.589C69.959,39.736,66.763,38.312,64.613,38.312z M42.599,46.673h-3.034   c-0.036,0-1.367,0.016-3.021,0.523l0.001-11.911c0-2.864,2.519-3.042,3.01-3.049c0.508,0.006,3.045,0.184,3.045,3.038   L42.599,46.673z M50.972,34.887c-0.008,0.132-0.023,0.261-0.023,0.398l-0.001,12.28c-0.98-0.623-2.11-0.892-3.042-0.892h-2.989   l0-15.568c0-2.864,2.519-3.042,3.017-3.048c0.311,0,3.038,0.085,3.038,3.038V34.887z M59.311,43.291   c-0.006,0.126-0.021,0.248-0.021,0.377v6.869c-0.221,2.471-2.5,2.649-2.996,2.657c-0.512-0.009-2.909-0.195-3.025-2.842   c0.001-0.07,0.012-0.136,0.012-0.207V34.879c0.229-2.471,2.521-2.636,2.986-2.643c0.51,0.006,3.046,0.184,3.046,3.038   L59.311,43.291z M67.651,46.673h-0.011v5.751c-0.105,2.674-2.497,2.861-3.007,2.87c-0.524-0.009-3.038-0.196-3.038-3.038v-1.729   c0.008-0.128,0.022-0.251,0.022-0.382l0.001-6.861c0.217-2.491,2.521-2.658,2.994-2.664c2.953,0,3.039,2.727,3.039,3.038   L67.651,46.673z"></path><rect x="80.151" y="12.686" transform="matrix(0.707 0.7072 -0.7072 0.707 36.9694 -52.0524)" width="2.307" height="11.809"></rect><rect x="84.304" y="46.663" width="10.648" height="2.307"></rect><rect x="46.751" y="5" width="2.308" height="10.668"></rect><rect x="12.775" y="17.42" transform="matrix(-0.7071 -0.7071 0.7071 -0.7071 18.7541 44.9147)" width="11.809" height="2.307"></rect><rect x="75.4" y="75.962" transform="matrix(-0.7071 -0.7071 0.7071 -0.7071 84.2728 189.1345)" width="11.809" height="2.306"></rect><rect x="17.525" y="71.227" transform="matrix(-0.707 -0.7072 0.7072 -0.707 -22.6632 144.8743)" width="2.307" height="11.809"></rect><rect x="5.048" y="46.663" width="10.649" height="2.307"></rect></g></svg>