<svg width='200' height='200' fill="#000000" xmlns="http://www.w3.org/2000/svg" xmlns:xlink="http://www.w3.org/1999/xlink" version="1.1" x="0px" y="0px" viewBox="0 0 100 100" style="enable-background:new 0 0 100 100;" xml:space="preserve"><path d="M65.8,52.5l-22,11.8c-0.2,0.1-0.3,0.2-0.5,0.3c-1.1,0.9-1.2,2.5-0.4,3.6c0.9,1.1,2.5,1.2,3.6,0.4l19.4-15.9  C66,52.6,65.9,52.4,65.8,52.5z M44.4,67.9c-0.7-0.3-1-1.1-0.7-1.9c0.3-0.7,1.1-1,1.9-0.7c0.7,0.3,1,1.1,0.7,1.9  C45.9,67.9,45.1,68.2,44.4,67.9z"></path><path d="M40.9,38.1c0.1,0.4,0.6,0.7,1,0.7c0.9-0.1,1.9-0.1,2.8-0.1c1.5,0,2.9,0.1,4.3,0.3c0.6,0.1,1.2-0.4,1.2-1  v-6.9c0-0.6-0.5-1-1-1c-3.2,0.1-6.4,0.7-9.3,1.6c-0.5,0.2-0.8,0.7-0.6,1.3L40.9,38.1z"></path><path d="M51.7,39.5c2.1,0.5,4.2,1.3,6.2,2.2c0.5,0.3,1.2,0,1.4-0.6l2.7-8.2c0.2-0.5-0.1-1.1-0.6-1.3  c-3-0.9-6.1-1.5-9.3-1.6c-0.6,0-1,0.4-1,1v7.5C50.9,39,51.3,39.4,51.7,39.5z"></path><path d="M80.6,47.7l-8.4,6.1c-0.4,0.3-0.5,0.8-0.3,1.3c0.9,1.6,1.6,3.2,2.2,4.9c0.2,0.5,0.7,0.8,1.2,0.6l9.8-3.2  c0.5-0.2,0.8-0.7,0.6-1.3c-1-2.9-2.3-5.7-3.8-8.2C81.8,47.5,81.1,47.4,80.6,47.7z"></path><path d="M32.1,41.6c2.3-1.1,4.7-2,7.2-2.5c0.6-0.1,1-0.7,0.8-1.3l-1.5-4.7c-0.2-0.5-0.8-0.8-1.3-0.6  c-2.9,1.2-5.7,2.7-8.2,4.6c-0.4,0.3-0.5,0.9-0.2,1.4l2,2.8C31.1,41.7,31.6,41.8,32.1,41.6z"></path><path d="M62.6,33.2l-2.8,8.6c-0.1,0.4,0,0.9,0.4,1.1c1.7,1,3.4,2.2,4.9,3.6c0.4,0.4,1.1,0.3,1.5-0.1l5.7-7.9  c0.3-0.4,0.2-1.1-0.2-1.4c-2.5-1.9-5.3-3.4-8.2-4.6C63.4,32.4,62.8,32.7,62.6,33.2z"></path><path d="M65.7,50.3c1.3,1.4,2,2.3,3,3.9c0.3,0.5,0.9,0.6,1.4,0.3l12.3-8.9c0.4-0.3,0.5-0.9,0.2-1.4  c-1.8-2.5-4.5-5.3-6.8-7.3c-0.4-0.4-1.1-0.3-1.5,0.2l-8.7,12C65.3,49.4,65.4,49.9,65.7,50.3z"></path><path d="M23.6,48c1.8-2,3.9-3.7,6.2-5.1c0.5-0.3,0.6-1,0.3-1.4l-1.8-2.4c-0.3-0.5-1-0.6-1.5-0.2  c-2.3,2-4.4,4.3-6.2,6.8c-0.3,0.4-0.2,1.1,0.2,1.4l1.4,1C22.7,48.4,23.2,48.3,23.6,48z"></path><path d="M15.9,57.4l0.5,0.2c0.5,0.2,1-0.1,1.2-0.6c1.1-2.6,2.5-5,4.2-7.1c0.4-0.4,0.3-1.1-0.2-1.4l-1.2-0.8  c-0.5-0.3-1.1-0.2-1.4,0.3c-1.6,2.5-2.9,5.3-3.8,8.2C15.1,56.7,15.4,57.3,15.9,57.4z"></path><path d="M75,62.5c0.4,1.7,0.7,3.5,0.9,5.3c0,0.5,0.5,0.9,1,0.9h10.2c0.6,0,1-0.5,1-1c-0.1-3.1-0.5-6-1.3-8.9  c-0.1-0.6-0.7-0.9-1.3-0.7l-9.8,3.2C75.1,61.5,74.8,62,75,62.5z"></path><path d="M15,68.7c0.1-3.2,0.7-6.3,1.7-9.2c0.2-0.5-0.1-1.1-0.6-1.3l-0.3-0.1c-0.5-0.2-1.1,0.1-1.3,0.7  c-0.8,3.2-1.3,6.5-1.3,9.9H15z"></path></svg>